<svg width="84" height="84" viewBox="0 0 84 84" fill="none" xmlns="http://www.w3.org/2000/svg">
<g filter="url(#filter0_d_402_7952)">
<circle cx="42" cy="38" r="38" fill="#FA7026"/>
</g>
<path d="M34.3571 37C34.1429 37 33.942 36.9598 33.7545 36.8795C33.567 36.7991 33.3929 36.6786 33.2321 36.5179L26.442 29.7277C26.1473 29.433 26 29.0511 26 28.5818C26 28.1136 26.1473 27.7321 26.442 27.4375C26.7366 27.1429 27.1116 26.9955 27.567 26.9955C28.0223 26.9955 28.3973 27.1429 28.692 27.4375L34.3973 33.1429L36.6473 35.3929L35.4821 36.5179C35.3214 36.6786 35.1473 36.7991 34.9598 36.8795C34.7723 36.9598 34.5714 37 34.3571 37ZM43.4375 36.9598C43.2232 36.9598 43.0223 36.9261 42.8348 36.8586C42.6473 36.7921 42.4732 36.6786 42.3125 36.5179L35.4821 29.6875C35.1875 29.3929 35.0402 29.0109 35.0402 28.5416C35.0402 28.0734 35.1875 27.692 35.4821 27.3973C35.7768 27.1027 36.1518 26.9554 36.6071 26.9554C37.0625 26.9554 37.4375 27.1027 37.7321 27.3973L43.4375 33.1027L57.0982 19.442C57.3929 19.1473 57.7679 19 58.2232 19C58.6786 19 59.0536 19.1473 59.3482 19.442C59.6429 19.7366 59.7902 20.118 59.7902 20.5862C59.7902 21.0555 59.6429 21.4375 59.3482 21.7321L44.5625 36.5179C44.4018 36.6786 44.2277 36.7921 44.0402 36.8586C43.8527 36.9261 43.6518 36.9598 43.4375 36.9598ZM43.4375 28.5625L41.1473 26.3125L47.9777 19.4821C48.2723 19.1875 48.6537 19.0402 49.122 19.0402C49.5912 19.0402 49.9732 19.1875 50.2679 19.4821C50.5625 19.7768 50.7098 20.1518 50.7098 20.6071C50.7098 21.0625 50.5625 21.4375 50.2679 21.7321L43.4375 28.5625Z" fill="white"/>
<path d="M20.0703 48.4453V49.5142H15.9185V48.4453H20.0703ZM16.2515 45.1797V53H14.9033V45.1797H16.2515ZM21.1069 45.1797V53H19.7642V45.1797H21.1069ZM22.3369 50.1587V50.0352C22.3369 49.6162 22.3978 49.2277 22.5195 48.8696C22.6413 48.508 22.8167 48.1947 23.0459 47.9297C23.2786 47.6611 23.5615 47.4535 23.8945 47.3066C24.2311 47.1562 24.6107 47.0811 25.0332 47.0811C25.4593 47.0811 25.8389 47.1562 26.1719 47.3066C26.5085 47.4535 26.7931 47.6611 27.0259 47.9297C27.2586 48.1947 27.4359 48.508 27.5576 48.8696C27.6794 49.2277 27.7402 49.6162 27.7402 50.0352V50.1587C27.7402 50.5776 27.6794 50.9661 27.5576 51.3242C27.4359 51.6823 27.2586 51.9956 27.0259 52.2642C26.7931 52.5291 26.5103 52.7368 26.1772 52.8872C25.8442 53.034 25.4665 53.1074 25.0439 53.1074C24.6178 53.1074 24.2365 53.034 23.8999 52.8872C23.5669 52.7368 23.284 52.5291 23.0513 52.2642C22.8185 51.9956 22.6413 51.6823 22.5195 51.3242C22.3978 50.9661 22.3369 50.5776 22.3369 50.1587ZM23.6313 50.0352V50.1587C23.6313 50.4201 23.6582 50.6672 23.7119 50.8999C23.7656 51.1326 23.8498 51.3368 23.9644 51.5122C24.0789 51.6877 24.2257 51.8255 24.4048 51.9258C24.5838 52.026 24.7969 52.0762 25.0439 52.0762C25.2839 52.0762 25.4915 52.026 25.667 51.9258C25.846 51.8255 25.9928 51.6877 26.1074 51.5122C26.222 51.3368 26.3062 51.1326 26.3599 50.8999C26.4172 50.6672 26.4458 50.4201 26.4458 50.1587V50.0352C26.4458 49.7773 26.4172 49.5339 26.3599 49.3047C26.3062 49.0719 26.2202 48.866 26.1021 48.687C25.9875 48.508 25.8407 48.3683 25.6616 48.2681C25.4862 48.1642 25.2767 48.1123 25.0332 48.1123C24.7897 48.1123 24.5785 48.1642 24.3994 48.2681C24.224 48.3683 24.0789 48.508 23.9644 48.687C23.8498 48.866 23.7656 49.0719 23.7119 49.3047C23.6582 49.5339 23.6313 49.7773 23.6313 50.0352ZM32.1016 51.8345V49.063C32.1016 48.8553 32.064 48.6763 31.9888 48.5259C31.9136 48.3755 31.799 48.2591 31.645 48.1768C31.4946 48.0944 31.3049 48.0532 31.0757 48.0532C30.8644 48.0532 30.6818 48.089 30.5278 48.1606C30.3739 48.2323 30.2539 48.3289 30.168 48.4507C30.082 48.5724 30.0391 48.7103 30.0391 48.8643H28.75C28.75 48.6351 28.8055 48.4131 28.9165 48.1982C29.0275 47.9834 29.1886 47.7918 29.3999 47.6235C29.6112 47.4552 29.8636 47.3228 30.1572 47.2261C30.4508 47.1294 30.7803 47.0811 31.1455 47.0811C31.5824 47.0811 31.9691 47.1545 32.3057 47.3013C32.6458 47.4481 32.9126 47.6701 33.106 47.9673C33.3029 48.2609 33.4014 48.6297 33.4014 49.0737V51.6572C33.4014 51.9222 33.4193 52.1603 33.4551 52.3716C33.4945 52.5793 33.55 52.7601 33.6216 52.9141V53H32.2949C32.234 52.8604 32.1857 52.6831 32.1499 52.4683C32.1177 52.2498 32.1016 52.0386 32.1016 51.8345ZM32.2896 49.4658L32.3003 50.2661H31.3711C31.1312 50.2661 30.9199 50.2894 30.7373 50.3359C30.5547 50.3789 30.4025 50.4434 30.2808 50.5293C30.159 50.6152 30.0677 50.7191 30.0068 50.8408C29.946 50.9626 29.9155 51.1004 29.9155 51.2544C29.9155 51.4084 29.9513 51.5498 30.0229 51.6787C30.0946 51.804 30.1984 51.9025 30.3345 51.9741C30.4741 52.0457 30.6424 52.0815 30.8394 52.0815C31.1043 52.0815 31.3353 52.0278 31.5322 51.9204C31.7327 51.8094 31.8903 51.6751 32.0049 51.5176C32.1195 51.3564 32.1803 51.2043 32.1875 51.061L32.6064 51.6357C32.5635 51.7826 32.4901 51.9401 32.3862 52.1084C32.2824 52.2767 32.1463 52.4378 31.978 52.5918C31.8133 52.7422 31.6146 52.8657 31.3818 52.9624C31.1527 53.0591 30.8877 53.1074 30.5869 53.1074C30.2074 53.1074 29.869 53.0322 29.5718 52.8818C29.2746 52.7279 29.0418 52.522 28.8735 52.2642C28.7052 52.0028 28.6211 51.7074 28.6211 51.3779C28.6211 51.07 28.6784 50.7979 28.793 50.5615C28.9111 50.3216 29.083 50.1211 29.3086 49.96C29.5378 49.7988 29.8171 49.6771 30.1465 49.5947C30.4759 49.5088 30.8519 49.4658 31.2744 49.4658H32.2896ZM30.8179 44.75L31.8652 46.3667H30.7856L29.3516 44.75H30.8179ZM36.0386 48.4292V53H34.7441V47.1885H35.9634L36.0386 48.4292ZM35.8076 49.8794L35.3887 49.874C35.3923 49.4622 35.4495 49.0845 35.5605 48.7407C35.6751 48.397 35.8327 48.1016 36.0332 47.8545C36.2373 47.6074 36.4808 47.4176 36.7637 47.2852C37.0465 47.1491 37.3617 47.0811 37.709 47.0811C37.9883 47.0811 38.2407 47.1204 38.4663 47.1992C38.6955 47.2744 38.8906 47.3979 39.0518 47.5698C39.2165 47.7417 39.3418 47.9655 39.4277 48.2412C39.5137 48.5133 39.5566 48.8481 39.5566 49.2456V53H38.2568V49.2402C38.2568 48.9609 38.2157 48.7407 38.1333 48.5796C38.0545 48.4149 37.9382 48.2985 37.7842 48.2305C37.6338 48.1589 37.4458 48.123 37.2202 48.123C36.9982 48.123 36.7995 48.1696 36.624 48.2627C36.4486 48.3558 36.3 48.4829 36.1782 48.644C36.0601 48.8052 35.9688 48.9914 35.9043 49.2026C35.8398 49.4139 35.8076 49.6395 35.8076 49.8794ZM46.2812 47.1885V48.1338H43.0049V47.1885H46.2812ZM43.9502 45.7651H45.2446V51.394C45.2446 51.5731 45.2697 51.7109 45.3198 51.8076C45.3735 51.9007 45.4469 51.9634 45.54 51.9956C45.6331 52.0278 45.7424 52.0439 45.8677 52.0439C45.9572 52.0439 46.0431 52.0386 46.1255 52.0278C46.2078 52.0171 46.2741 52.0063 46.3242 51.9956L46.3296 52.9839C46.2222 53.0161 46.0968 53.0448 45.9536 53.0698C45.814 53.0949 45.6528 53.1074 45.4702 53.1074C45.173 53.1074 44.9098 53.0555 44.6807 52.9517C44.4515 52.8442 44.2725 52.6706 44.1436 52.4307C44.0146 52.1908 43.9502 51.8721 43.9502 51.4746V45.7651ZM48.5586 44.75V53H47.2695V44.75H48.5586ZM48.333 49.8794L47.9141 49.874C47.9176 49.473 47.9731 49.1024 48.0806 48.7622C48.1916 48.422 48.3455 48.1266 48.5425 47.876C48.743 47.6217 48.9829 47.4266 49.2622 47.2905C49.5415 47.1509 49.8512 47.0811 50.1914 47.0811C50.4779 47.0811 50.7357 47.1204 50.9648 47.1992C51.1976 47.278 51.3981 47.4051 51.5664 47.5806C51.7347 47.7524 51.8618 47.978 51.9478 48.2573C52.0373 48.533 52.082 48.8696 52.082 49.2671V53H50.7822V49.2563C50.7822 48.9771 50.741 48.755 50.6587 48.5903C50.5799 48.4256 50.4635 48.3075 50.3096 48.2358C50.1556 48.1606 49.9676 48.123 49.7456 48.123C49.5129 48.123 49.307 48.1696 49.1279 48.2627C48.9525 48.3558 48.8057 48.4829 48.6875 48.644C48.5693 48.8052 48.4798 48.9914 48.4189 49.2026C48.3617 49.4139 48.333 49.6395 48.333 49.8794ZM56.6689 51.8345V49.063C56.6689 48.8553 56.6313 48.6763 56.5562 48.5259C56.481 48.3755 56.3664 48.2591 56.2124 48.1768C56.062 48.0944 55.8722 48.0532 55.6431 48.0532C55.4318 48.0532 55.2492 48.089 55.0952 48.1606C54.9412 48.2323 54.8213 48.3289 54.7354 48.4507C54.6494 48.5724 54.6064 48.7103 54.6064 48.8643H53.3174C53.3174 48.6351 53.3729 48.4131 53.4839 48.1982C53.5949 47.9834 53.756 47.7918 53.9673 47.6235C54.1785 47.4552 54.431 47.3228 54.7246 47.2261C55.0182 47.1294 55.3477 47.0811 55.7129 47.0811C56.1497 47.0811 56.5365 47.1545 56.873 47.3013C57.2132 47.4481 57.48 47.6701 57.6733 47.9673C57.8703 48.2609 57.9688 48.6297 57.9688 49.0737V51.6572C57.9688 51.9222 57.9867 52.1603 58.0225 52.3716C58.0618 52.5793 58.1174 52.7601 58.189 52.9141V53H56.8623C56.8014 52.8604 56.7531 52.6831 56.7173 52.4683C56.6851 52.2498 56.6689 52.0386 56.6689 51.8345ZM56.8569 49.4658L56.8677 50.2661H55.9385C55.6986 50.2661 55.4873 50.2894 55.3047 50.3359C55.1221 50.3789 54.9699 50.4434 54.8481 50.5293C54.7264 50.6152 54.6351 50.7191 54.5742 50.8408C54.5133 50.9626 54.4829 51.1004 54.4829 51.2544C54.4829 51.4084 54.5187 51.5498 54.5903 51.6787C54.6619 51.804 54.7658 51.9025 54.9019 51.9741C55.0415 52.0457 55.2098 52.0815 55.4067 52.0815C55.6717 52.0815 55.9027 52.0278 56.0996 51.9204C56.3001 51.8094 56.4577 51.6751 56.5723 51.5176C56.6868 51.3564 56.7477 51.2043 56.7549 51.061L57.1738 51.6357C57.1309 51.7826 57.0575 51.9401 56.9536 52.1084C56.8498 52.2767 56.7137 52.4378 56.5454 52.5918C56.3807 52.7422 56.182 52.8657 55.9492 52.9624C55.7201 53.0591 55.4551 53.1074 55.1543 53.1074C54.7747 53.1074 54.4364 53.0322 54.1392 52.8818C53.842 52.7279 53.6092 52.522 53.4409 52.2642C53.2726 52.0028 53.1885 51.7074 53.1885 51.3779C53.1885 51.07 53.2458 50.7979 53.3604 50.5615C53.4785 50.3216 53.6504 50.1211 53.876 49.96C54.1051 49.7988 54.3844 49.6771 54.7139 49.5947C55.0433 49.5088 55.4193 49.4658 55.8418 49.4658H56.8569ZM55.3853 44.75L56.4326 46.3667H55.353L53.9189 44.75H55.3853ZM60.606 48.4292V53H59.3115V47.1885H60.5308L60.606 48.4292ZM60.375 49.8794L59.9561 49.874C59.9596 49.4622 60.0169 49.0845 60.1279 48.7407C60.2425 48.397 60.4001 48.1016 60.6006 47.8545C60.8047 47.6074 61.0482 47.4176 61.3311 47.2852C61.6139 47.1491 61.929 47.0811 62.2764 47.0811C62.5557 47.0811 62.8081 47.1204 63.0337 47.1992C63.2629 47.2744 63.458 47.3979 63.6191 47.5698C63.7839 47.7417 63.9092 47.9655 63.9951 48.2412C64.0811 48.5133 64.124 48.8481 64.124 49.2456V53H62.8242V49.2402C62.8242 48.9609 62.783 48.7407 62.7007 48.5796C62.6219 48.4149 62.5055 48.2985 62.3516 48.2305C62.2012 48.1589 62.0132 48.123 61.7876 48.123C61.5656 48.123 61.3669 48.1696 61.1914 48.2627C61.016 48.3558 60.8674 48.4829 60.7456 48.644C60.6274 48.8052 60.5361 48.9914 60.4717 49.2026C60.4072 49.4139 60.375 49.6395 60.375 49.8794ZM66.7236 44.75V53H65.4346V44.75H66.7236ZM66.498 49.8794L66.0791 49.874C66.0827 49.473 66.1382 49.1024 66.2456 48.7622C66.3566 48.422 66.5106 48.1266 66.7075 47.876C66.908 47.6217 67.1479 47.4266 67.4272 47.2905C67.7065 47.1509 68.0163 47.0811 68.3564 47.0811C68.6429 47.0811 68.9007 47.1204 69.1299 47.1992C69.3626 47.278 69.5632 47.4051 69.7314 47.5806C69.8997 47.7524 70.0269 47.978 70.1128 48.2573C70.2023 48.533 70.2471 48.8696 70.2471 49.2671V53H68.9473V49.2563C68.9473 48.9771 68.9061 48.755 68.8237 48.5903C68.745 48.4256 68.6286 48.3075 68.4746 48.2358C68.3206 48.1606 68.1326 48.123 67.9106 48.123C67.6779 48.123 67.472 48.1696 67.293 48.2627C67.1175 48.3558 66.9707 48.4829 66.8525 48.644C66.7344 48.8052 66.6449 48.9914 66.584 49.2026C66.5267 49.4139 66.498 49.6395 66.498 49.8794Z" fill="white"/>
<defs>
<filter id="filter0_d_402_7952" x="0" y="0" width="84" height="84" filterUnits="userSpaceOnUse" color-interpolation-filters="sRGB">
<feFlood flood-opacity="0" result="BackgroundImageFix"/>
<feColorMatrix in="SourceAlpha" type="matrix" values="0 0 0 0 0 0 0 0 0 0 0 0 0 0 0 0 0 0 127 0" result="hardAlpha"/>
<feOffset dy="4"/>
<feGaussianBlur stdDeviation="2"/>
<feComposite in2="hardAlpha" operator="out"/>
<feColorMatrix type="matrix" values="0 0 0 0 0 0 0 0 0 0 0 0 0 0 0 0 0 0 0.25 0"/>
<feBlend mode="normal" in2="BackgroundImageFix" result="effect1_dropShadow_402_7952"/>
<feBlend mode="normal" in="SourceGraphic" in2="effect1_dropShadow_402_7952" result="shape"/>
</filter>
</defs>
</svg>
