<svg width="24" height="20" viewBox="0 0 24 20" fill="none" xmlns="http://www.w3.org/2000/svg">
<path d="M6.26667 8.57143C6.8 5.71429 9.2 3.57143 12 3.57143C14 3.57143 15.6 4.57143 16.6667 6.14286L18.9333 3.28571C17.3333 1.28571 14.8 0 12 0C7.33333 0 3.46667 3.71429 2.8 8.57143H0L4.66667 14.2857L9.33333 8.57143H6.26667ZM19.3333 5.71429L14.6667 11.4286H17.7333C17.0667 14.2857 14.8 16.4286 12 16.4286C10 16.4286 8.4 15.4286 7.33333 13.8571L5.06667 16.5714C6.66667 18.7143 9.2 20 12 20C16.6667 20 20.5333 16.2857 21.2 11.4286H24L19.3333 5.71429Z" fill="white"/>
</svg>
