<svg width="16" height="22" viewBox="0 0 16 22" fill="none" xmlns="http://www.w3.org/2000/svg">
<path d="M15.9993 5.40033C15.9993 4.51672 15.283 3.8004 14.3994 3.8004H12.1783C11.882 3.47126 11.5014 3.21942 11.0641 3.09363C10.6958 2.98773 10.4123 2.70425 10.3064 2.33591C10.0181 1.33375 9.09451 0.600586 7.9996 0.600586C6.90475 0.600586 5.98119 1.3337 5.693 2.33581C5.58691 2.7046 5.30272 2.98773 4.93394 3.09403C4.49716 3.21992 4.11692 3.47151 3.82088 3.8004H1.59993C0.716269 3.8004 0 4.51672 0 5.40033V19.7997C0 20.6833 0.716269 21.3996 1.59993 21.3996C5.27307 21.3996 9.78748 21.3996 14.3994 21.3996C15.283 21.3996 15.9993 20.6833 15.9993 19.7997C15.9993 15.2559 15.9993 10.9049 15.9993 5.40033ZM3.99988 5.38743C4.00538 4.68416 4.48056 4.05719 5.15548 3.8627C5.79095 3.6796 6.27928 3.19142 6.46177 2.55695C6.65761 1.87603 7.28999 1.40055 7.9996 1.40055C8.70927 1.40055 9.34165 1.87603 9.53744 2.557C9.72003 3.19187 10.2081 3.6799 10.8429 3.86245C11.5238 4.05829 11.9994 4.69071 11.9994 5.40028V6.20024H3.99988V5.38743ZM14.3994 20.5996C10.1268 20.5996 5.86125 20.5996 1.59993 20.5996C1.1588 20.5996 0.799966 20.2407 0.799966 19.7997V5.40033C0.799966 4.95925 1.1588 4.60036 1.59993 4.60036H3.33696C3.25046 4.84495 3.20206 5.10749 3.19996 5.38118V7.00026H12.7994V5.40033C12.7994 5.11959 12.7498 4.8508 12.6613 4.60036H14.3994C14.8405 4.60036 15.1993 4.95925 15.1993 5.40033C15.1993 7.68738 15.1992 18.4125 15.1994 19.7997C15.1993 20.2407 14.8405 20.5996 14.3994 20.5996Z" fill="#A1A1A1"/>
</svg>
