<svg xmlns="http://www.w3.org/2000/svg" width="16" height="11" viewBox="0 0 16 11" fill="none">
<path d="M7.9155e-05 1.82515C-0.000501633 2.05996 0.0371771 2.29196 0.110346 2.50411C0.183515 2.71626 0.290315 2.90316 0.422897 3.05109L7.27939 10.6425C7.48387 10.8736 7.74035 11 8.00504 11C8.26973 11 8.52621 10.8736 8.73068 10.6425L15.5872 2.7839C15.8205 2.51712 15.9673 2.13376 15.9952 1.71816C16.023 1.30256 15.9297 0.888754 15.7357 0.567783C15.5418 0.246814 15.263 0.0449686 14.9609 0.00665092C14.6587 -0.0316677 14.3578 0.0966806 14.1245 0.363461L7.99932 7.38901L1.87419 0.599218C1.70645 0.407024 1.50219 0.284939 1.28559 0.247407C1.06898 0.209875 0.849088 0.258468 0.651932 0.387436C0.454776 0.516404 0.288607 0.720349 0.173086 0.97514C0.0575657 1.22993 -0.00247192 1.5249 7.9155e-05 1.82515Z" fill="#585858"/>
</svg>
