<svg width="26" height="26" viewBox="0 0 26 26" fill="none" xmlns="http://www.w3.org/2000/svg">
<path fill-rule="evenodd" clip-rule="evenodd" d="M21 26C23.7614 26 26 23.7614 26 21V5C26 2.23858 23.7614 0 21 0H5C2.23858 0 0 2.23858 0 5V21C0 23.7614 2.23858 26 5 26H21ZM4.45222 10.1677C4.37296 9.96714 4.33214 9.74779 4.33277 9.52579C4.33 9.24192 4.39504 8.96304 4.52019 8.72215C4.64534 8.48125 4.82536 8.28843 5.03894 8.1665C5.25253 8.04457 5.49074 7.99862 5.7254 8.03411C5.96006 8.06959 6.18133 8.18502 6.36305 8.36673L12.9986 14.7862L19.6342 8.14383C19.887 7.8916 20.2129 7.77026 20.5403 7.80648C20.8676 7.84271 21.1696 8.03355 21.3797 8.33701C21.5899 8.64047 21.691 9.0317 21.6608 9.42463C21.6306 9.81757 21.4716 10.18 21.2188 10.4322L13.7909 17.8622C13.5694 18.0807 13.2916 18.2002 13.0048 18.2002C12.7181 18.2002 12.4402 18.0807 12.2187 17.8622L4.79082 10.6849C4.64719 10.545 4.53149 10.3683 4.45222 10.1677Z" fill="white"/>
</svg>
