<svg width="26" height="26" viewBox="0 0 26 26" fill="none" xmlns="http://www.w3.org/2000/svg">
<path fill-rule="evenodd" clip-rule="evenodd" d="M5 0C2.23858 0 0 2.23858 0 5V21C0 23.7614 2.23858 26 5 26H21C23.7614 26 26 23.7614 26 21V5C26 2.23858 23.7614 0 21 0H5ZM21.5478 15.8323C21.627 16.0329 21.6679 16.2522 21.6672 16.4742C21.67 16.7581 21.605 17.037 21.4798 17.2779C21.3547 17.5187 21.1746 17.7116 20.9611 17.8335C20.7475 17.9554 20.5093 18.0014 20.2746 17.9659C20.0399 17.9304 19.8187 17.815 19.6369 17.6333L13.0014 11.2138L6.36582 17.8562C6.113 18.1084 5.78707 18.2297 5.45971 18.1935C5.13236 18.1573 4.8304 17.9665 4.62027 17.663C4.41014 17.3595 4.30904 16.9683 4.33922 16.5754C4.3694 16.1824 4.52839 15.82 4.78121 15.5678L12.2091 8.13785C12.4306 7.91929 12.7084 7.7998 12.9952 7.7998C13.2819 7.7998 13.5598 7.91929 13.7813 8.13785L21.2092 15.3151C21.3528 15.455 21.4685 15.6317 21.5478 15.8323Z" fill="white"/>
</svg>
