<svg xmlns="http://www.w3.org/2000/svg" width="52" height="52" viewBox="0 0 52 52" fill="none">
  <g filter="url(#filter0_d_8291_4416)">
    <path d="M47.2 22C47.2 33.7084 37.7084 43.2 26 43.2C14.2916 43.2 4.8 33.7084 4.8 22C4.8 10.2916 14.2916 0.8 26 0.8C37.7084 0.8 47.2 10.2916 47.2 22Z" fill="url(#paint0_linear_8291_4416)" stroke="#B71CAB" stroke-width="1.6"/>
    <path d="M30.44 18.8999C34.04 19.2099 35.51 21.0599 35.51 25.1099V25.2399C35.51 29.7099 33.72 31.4999 29.25 31.4999H22.74C18.27 31.4999 16.48 29.7099 16.48 25.2399V25.1099C16.48 21.0899 17.93 19.2399 21.47 18.9099" stroke="white" stroke-width="1.5" stroke-linecap="round" stroke-linejoin="round"/>
    <path d="M26 12V24.88" stroke="white" stroke-width="1.5" stroke-linecap="round" stroke-linejoin="round"/>
    <path d="M29.3499 22.6499L25.9999 25.9999L22.6499 22.6499" stroke="white" stroke-width="1.5" stroke-linecap="round" stroke-linejoin="round"/>
  </g>
  <defs>
    <filter id="filter0_d_8291_4416" x="0" y="0" width="52" height="52" filterUnits="userSpaceOnUse" color-interpolation-filters="sRGB">
      <feFlood flood-opacity="0" result="BackgroundImageFix"/>
      <feColorMatrix in="SourceAlpha" type="matrix" values="0 0 0 0 0 0 0 0 0 0 0 0 0 0 0 0 0 0 127 0" result="hardAlpha"/>
      <feOffset dy="4"/>
      <feGaussianBlur stdDeviation="2"/>
      <feComposite in2="hardAlpha" operator="out"/>
      <feColorMatrix type="matrix" values="0 0 0 0 0.717647 0 0 0 0 0.109804 0 0 0 0 0.670588 0 0 0 0.25 0"/>
      <feBlend mode="normal" in2="BackgroundImageFix" result="effect1_dropShadow_8291_4416"/>
      <feBlend mode="normal" in="SourceGraphic" in2="effect1_dropShadow_8291_4416" result="shape"/>
    </filter>
    <linearGradient id="paint0_linear_8291_4416" x1="26" y1="44" x2="26" y2="0" gradientUnits="userSpaceOnUse">
      <stop stop-color="#87117E"/>
      <stop offset="1" stop-color="#B71CAB"/>
    </linearGradient>
  </defs>
</svg>