<svg width="22" height="22" viewBox="0 0 22 22" fill="none" xmlns="http://www.w3.org/2000/svg">
<path d="M21.279 11.53L18.279 14.53C17.9858 14.8233 17.5118 14.8233 17.2185 14.53C16.9253 14.2368 16.9253 13.7628 17.2185 13.4695L18.9383 11.7498H11.7488V18.9393L13.4685 17.2195C13.7618 16.9263 14.2358 16.9263 14.529 17.2195C14.8223 17.5128 14.8223 17.9868 14.529 18.28L11.529 21.28C11.2455 21.5643 10.7693 21.5815 10.4678 21.28L7.46778 18.28C7.17453 17.9868 7.17453 17.5128 7.46778 17.2195C7.76103 16.9263 8.23503 16.9263 8.52828 17.2195L10.2488 18.9393V11.7498H3.05928L4.77903 13.4695C5.07228 13.7628 5.07228 14.2368 4.77903 14.53C4.48578 14.8233 4.01178 14.8233 3.71853 14.53L0.718532 11.53C0.428282 11.2398 0.426032 10.7613 0.718532 10.4688L3.71853 7.46876C4.01178 7.17551 4.48578 7.17551 4.77903 7.46876C5.07228 7.76201 5.07228 8.23601 4.77903 8.52926L3.05928 10.2498H10.2488V3.06026L8.52903 4.78001C8.23578 5.07326 7.76178 5.07326 7.46853 4.78001C7.17528 4.48676 7.17528 4.01276 7.46853 3.71951L10.4685 0.719509C10.7588 0.429259 11.2373 0.427009 11.5298 0.719509L14.5298 3.71951C14.823 4.01276 14.823 4.48676 14.5298 4.78001C14.3828 4.92626 14.1908 4.99976 13.9988 4.99976C13.8068 4.99976 13.6148 4.92626 13.4685 4.78001L11.7488 3.06026V10.2498H18.9383L17.2185 8.53001C16.9253 8.23676 16.9253 7.76276 17.2185 7.46951C17.5118 7.17626 17.9858 7.17626 18.279 7.46951L21.279 10.4695C21.5715 10.7613 21.5693 11.2405 21.279 11.53Z" fill="white"/>
</svg>
