<svg width="24" height="24" viewBox="0 0 24 24" fill="none" xmlns="http://www.w3.org/2000/svg">
<rect x="0.5" y="0.5" width="23" height="23" rx="11.5" fill="#CA2848"/>
<rect x="0.5" y="0.5" width="23" height="23" rx="11.5" stroke="#CA2848"/>
<path d="M10.5769 7.69193H13.2692C13.2692 7.33491 13.1274 6.99251 12.875 6.74006C12.6225 6.4876 12.2801 6.34578 11.9231 6.34578C11.5661 6.34578 11.2237 6.4876 10.9712 6.74006C10.7187 6.99251 10.5769 7.33491 10.5769 7.69193ZM9.76923 7.69193C9.76923 7.1207 9.99615 6.57286 10.4001 6.16893C10.804 5.76501 11.3518 5.53809 11.9231 5.53809C12.4943 5.53809 13.0422 5.76501 13.4461 6.16893C13.85 6.57286 14.0769 7.1207 14.0769 7.69193H17.4423C17.5494 7.69193 17.6521 7.73448 17.7279 7.81022C17.8036 7.88595 17.8462 7.98867 17.8462 8.09578C17.8462 8.20289 17.8036 8.30561 17.7279 8.38134C17.6521 8.45708 17.5494 8.49962 17.4423 8.49962H16.7369L16.0816 16.3628C16.0339 16.9348 15.773 17.468 15.3507 17.8567C14.9283 18.2454 14.3752 18.4611 13.8012 18.4612H10.0449C9.47092 18.4611 8.91789 18.2454 8.4955 17.8567C8.07311 17.468 7.81221 16.9348 7.76454 16.3628L7.10923 8.49962H6.40385C6.29674 8.49962 6.19402 8.45708 6.11828 8.38134C6.04255 8.30561 6 8.20289 6 8.09578C6 7.98867 6.04255 7.88595 6.11828 7.81022C6.19402 7.73448 6.29674 7.69193 6.40385 7.69193H9.76923ZM8.56954 16.2955C8.60033 16.6656 8.7691 17.0107 9.04239 17.2622C9.31567 17.5137 9.6735 17.6534 10.0449 17.6535H13.8012C14.1727 17.6534 14.5305 17.5137 14.8038 17.2622C15.077 17.0107 15.2458 16.6656 15.2766 16.2955L15.9271 8.49962H7.91962L8.56954 16.2955ZM10.7115 10.3842C10.8186 10.3842 10.9214 10.4268 10.9971 10.5025C11.0728 10.5783 11.1154 10.681 11.1154 10.7881V15.365C11.1154 15.4721 11.0728 15.5748 10.9971 15.6506C10.9214 15.7263 10.8186 15.7689 10.7115 15.7689C10.6044 15.7689 10.5017 15.7263 10.426 15.6506C10.3502 15.5748 10.3077 15.4721 10.3077 15.365V10.7881C10.3077 10.681 10.3502 10.5783 10.426 10.5025C10.5017 10.4268 10.6044 10.3842 10.7115 10.3842ZM13.5385 10.7881C13.5385 10.681 13.4959 10.5783 13.4202 10.5025C13.3444 10.4268 13.2417 10.3842 13.1346 10.3842C13.0275 10.3842 12.9248 10.4268 12.8491 10.5025C12.7733 10.5783 12.7308 10.681 12.7308 10.7881V15.365C12.7308 15.4721 12.7733 15.5748 12.8491 15.6506C12.9248 15.7263 13.0275 15.7689 13.1346 15.7689C13.2417 15.7689 13.3444 15.7263 13.4202 15.6506C13.4959 15.5748 13.5385 15.4721 13.5385 15.365V10.7881Z" fill="white"/>
</svg>
