<svg width="84" height="84" viewBox="0 0 84 84" fill="none" xmlns="http://www.w3.org/2000/svg">
<g filter="url(#filter0_d_402_7946)">
<circle cx="42" cy="38" r="38" fill="#FA7026"/>
<circle cx="42" cy="38" r="37.5" stroke="#FA7026"/>
</g>
<path d="M47.5556 16H34.2222C33.6329 16 33.0676 16.2341 32.6509 16.6509C32.2341 17.0676 32 17.6329 32 18.2222V33.7778C32 34.3671 32.2341 34.9324 32.6509 35.3491C33.0676 35.7659 33.6329 36 34.2222 36H49.7778C51 36 52 35 52 33.7778V20.4444L47.5556 16ZM42 33.7778C40.1556 33.7778 38.6667 32.2889 38.6667 30.4444C38.6667 28.6 40.1556 27.1111 42 27.1111C43.8444 27.1111 45.3333 28.6 45.3333 30.4444C45.3333 32.2889 43.8444 33.7778 42 33.7778ZM45.3333 22.6667H34.2222V18.2222H45.3333V22.6667Z" fill="white"/>
<path d="M27.8853 54.1567V55H23.9751V54.1567H27.8853ZM24.1792 47.1797V55H23.1426V47.1797H24.1792ZM34.1265 48.7212H34.8892C34.8892 49.1115 34.8372 49.4391 34.7334 49.7041C34.6331 49.9691 34.4559 50.1678 34.2017 50.3003C33.9474 50.4328 33.5894 50.499 33.1274 50.499V49.8867C33.4497 49.8867 33.6807 49.8473 33.8203 49.7686C33.96 49.6862 34.0459 49.5591 34.0781 49.3872C34.1104 49.2153 34.1265 48.9933 34.1265 48.7212ZM32.2412 53.6572V49.1885H33.2402V55H32.2896L32.2412 53.6572ZM32.4292 52.4326L32.8428 52.4219C32.8428 52.8086 32.8016 53.1667 32.7192 53.4961C32.6405 53.8219 32.5116 54.1048 32.3325 54.3447C32.1535 54.5846 31.9189 54.7726 31.6289 54.9087C31.3389 55.0412 30.9862 55.1074 30.5708 55.1074C30.2879 55.1074 30.0283 55.0662 29.792 54.9839C29.5592 54.9015 29.3587 54.7744 29.1904 54.6025C29.0221 54.4307 28.8914 54.2069 28.7983 53.9312C28.7088 53.6554 28.6641 53.3242 28.6641 52.9375V49.1885H29.6577V52.9482C29.6577 53.2096 29.6864 53.4263 29.7437 53.5981C29.8045 53.7664 29.8851 53.9007 29.9854 54.001C30.0892 54.0977 30.2038 54.1657 30.3291 54.2051C30.458 54.2445 30.5905 54.2642 30.7266 54.2642C31.1491 54.2642 31.4839 54.1836 31.731 54.0225C31.978 53.8577 32.1553 53.6375 32.2627 53.3618C32.3737 53.0825 32.4292 52.7728 32.4292 52.4326ZM39.0518 53.6572V49.1885H40.0508V55H39.1001L39.0518 53.6572ZM39.2397 52.4326L39.6533 52.4219C39.6533 52.8086 39.6121 53.1667 39.5298 53.4961C39.451 53.8219 39.3221 54.1048 39.1431 54.3447C38.964 54.5846 38.7295 54.7726 38.4395 54.9087C38.1494 55.0412 37.7967 55.1074 37.3813 55.1074C37.0985 55.1074 36.8389 55.0662 36.6025 54.9839C36.3698 54.9015 36.1693 54.7744 36.001 54.6025C35.8327 54.4307 35.702 54.2069 35.6089 53.9312C35.5194 53.6554 35.4746 53.3242 35.4746 52.9375V49.1885H36.4683V52.9482C36.4683 53.2096 36.4969 53.4263 36.5542 53.5981C36.6151 53.7664 36.6956 53.9007 36.7959 54.001C36.8997 54.0977 37.0143 54.1657 37.1396 54.2051C37.2686 54.2445 37.401 54.2642 37.5371 54.2642C37.9596 54.2642 38.2944 54.1836 38.5415 54.0225C38.7886 53.8577 38.9658 53.6375 39.0732 53.3618C39.1842 53.0825 39.2397 52.7728 39.2397 52.4326ZM46.7271 49.1885V49.9512H43.585V49.1885H46.7271ZM44.6484 47.7759H45.6421V53.5605C45.6421 53.7575 45.6725 53.9061 45.7334 54.0063C45.7943 54.1066 45.873 54.1729 45.9697 54.2051C46.0664 54.2373 46.1702 54.2534 46.2812 54.2534C46.3636 54.2534 46.4495 54.2463 46.5391 54.2319C46.6322 54.214 46.702 54.1997 46.7485 54.189L46.7539 55C46.6751 55.0251 46.5713 55.0483 46.4424 55.0698C46.3171 55.0949 46.1649 55.1074 45.9858 55.1074C45.7424 55.1074 45.5186 55.0591 45.3145 54.9624C45.1104 54.8657 44.9474 54.7046 44.8257 54.479C44.7075 54.2498 44.6484 53.9419 44.6484 53.5552V47.7759ZM51.3193 54.0063V51.0146C51.3193 50.7855 51.2728 50.5868 51.1797 50.4185C51.0902 50.2466 50.9541 50.1141 50.7715 50.021C50.5889 49.9279 50.3633 49.8813 50.0947 49.8813C49.8441 49.8813 49.6239 49.9243 49.4341 50.0103C49.2479 50.0962 49.1011 50.209 48.9937 50.3486C48.8898 50.4883 48.8379 50.6387 48.8379 50.7998H47.8442C47.8442 50.5921 47.8979 50.3862 48.0054 50.1821C48.1128 49.978 48.2668 49.7936 48.4673 49.6289C48.6714 49.4606 48.9149 49.3281 49.1978 49.2314C49.4842 49.1312 49.8029 49.0811 50.1538 49.0811C50.5763 49.0811 50.9487 49.1527 51.271 49.2959C51.5968 49.4391 51.8511 49.6558 52.0337 49.9458C52.2199 50.2323 52.313 50.5921 52.313 51.0254V53.7324C52.313 53.9258 52.3291 54.1317 52.3613 54.3501C52.3971 54.5685 52.4491 54.7565 52.5171 54.9141V55H51.4805C51.4303 54.8854 51.391 54.7332 51.3623 54.5435C51.3337 54.3501 51.3193 54.1711 51.3193 54.0063ZM51.4912 51.4766L51.502 52.1748H50.4976C50.2147 52.1748 49.9622 52.1981 49.7402 52.2446C49.5182 52.2876 49.332 52.3538 49.1816 52.4434C49.0312 52.5329 48.9167 52.6457 48.8379 52.7817C48.7591 52.9142 48.7197 53.07 48.7197 53.249C48.7197 53.4316 48.7609 53.5981 48.8433 53.7485C48.9256 53.8989 49.0492 54.0189 49.2139 54.1084C49.3822 54.1943 49.5881 54.2373 49.8315 54.2373C50.1359 54.2373 50.4045 54.1729 50.6372 54.0439C50.87 53.915 51.0544 53.7575 51.1904 53.5713C51.3301 53.3851 51.4053 53.2043 51.416 53.0288L51.8403 53.5068C51.8153 53.6572 51.7472 53.8237 51.6362 54.0063C51.5252 54.189 51.3766 54.3644 51.1904 54.5327C51.0078 54.6974 50.7894 54.8353 50.5352 54.9463C50.2845 55.0537 50.0016 55.1074 49.6865 55.1074C49.2926 55.1074 48.9471 55.0304 48.6499 54.8765C48.3563 54.7225 48.1271 54.5166 47.9624 54.2588C47.8013 53.9974 47.7207 53.7056 47.7207 53.3833C47.7207 53.0718 47.7816 52.7979 47.9033 52.5615C48.0251 52.3216 48.2005 52.1229 48.4297 51.9653C48.6589 51.8042 48.9346 51.6825 49.2568 51.6001C49.5791 51.5177 49.939 51.4766 50.3364 51.4766H51.4912ZM49.2139 56.3213C49.2139 56.1602 49.2622 56.0241 49.3589 55.9131C49.4591 55.8021 49.606 55.7466 49.7993 55.7466C49.9891 55.7466 50.1341 55.8021 50.2344 55.9131C50.3382 56.0241 50.3901 56.1602 50.3901 56.3213C50.3901 56.4753 50.3382 56.606 50.2344 56.7134C50.1341 56.8244 49.9891 56.8799 49.7993 56.8799C49.606 56.8799 49.4591 56.8244 49.3589 56.7134C49.2622 56.606 49.2139 56.4753 49.2139 56.3213ZM54.8643 50.3433V55H53.8652V49.1885H54.8105L54.8643 50.3433ZM54.6602 51.874L54.1982 51.8579C54.2018 51.4604 54.2537 51.0934 54.354 50.7568C54.4543 50.4167 54.6029 50.1213 54.7998 49.8706C54.9967 49.62 55.242 49.4266 55.5356 49.2905C55.8293 49.1509 56.1694 49.0811 56.5562 49.0811C56.8283 49.0811 57.0789 49.1204 57.3081 49.1992C57.5373 49.2744 57.736 49.3944 57.9043 49.5591C58.0726 49.7238 58.2033 49.9351 58.2964 50.1929C58.3895 50.4507 58.436 50.7622 58.436 51.1274V55H57.4424V51.1758C57.4424 50.8714 57.3905 50.6279 57.2866 50.4453C57.1864 50.2627 57.0431 50.1302 56.8569 50.0479C56.6707 49.9619 56.4523 49.9189 56.2017 49.9189C55.908 49.9189 55.6628 49.9709 55.4658 50.0747C55.2689 50.1785 55.1113 50.3218 54.9932 50.5044C54.875 50.687 54.7891 50.8965 54.7354 51.1328C54.6852 51.3656 54.6602 51.6126 54.6602 51.874ZM58.4253 51.3262L57.7593 51.5303C57.7629 51.2116 57.8148 50.9054 57.915 50.6118C58.0189 50.3182 58.1675 50.0568 58.3608 49.8276C58.5578 49.5985 58.7995 49.4176 59.0859 49.2852C59.3724 49.1491 59.7 49.0811 60.0688 49.0811C60.3804 49.0811 60.6561 49.1222 60.896 49.2046C61.1395 49.2869 61.3436 49.4141 61.5083 49.5859C61.6766 49.7542 61.8037 49.9709 61.8896 50.2358C61.9756 50.5008 62.0186 50.8159 62.0186 51.1812V55H61.0195V51.1704C61.0195 50.8446 60.9676 50.5921 60.8638 50.4131C60.7635 50.2305 60.6203 50.1034 60.4341 50.0317C60.2515 49.9565 60.033 49.9189 59.7788 49.9189C59.5604 49.9189 59.367 49.9565 59.1987 50.0317C59.0304 50.1069 58.889 50.2108 58.7744 50.3433C58.6598 50.4722 58.5721 50.6208 58.5112 50.7891C58.4539 50.9574 58.4253 51.1364 58.4253 51.3262Z" fill="white"/>
<defs>
<filter id="filter0_d_402_7946" x="0" y="0" width="84" height="84" filterUnits="userSpaceOnUse" color-interpolation-filters="sRGB">
<feFlood flood-opacity="0" result="BackgroundImageFix"/>
<feColorMatrix in="SourceAlpha" type="matrix" values="0 0 0 0 0 0 0 0 0 0 0 0 0 0 0 0 0 0 127 0" result="hardAlpha"/>
<feOffset dy="4"/>
<feGaussianBlur stdDeviation="2"/>
<feComposite in2="hardAlpha" operator="out"/>
<feColorMatrix type="matrix" values="0 0 0 0 0 0 0 0 0 0 0 0 0 0 0 0 0 0 0.25 0"/>
<feBlend mode="normal" in2="BackgroundImageFix" result="effect1_dropShadow_402_7946"/>
<feBlend mode="normal" in="SourceGraphic" in2="effect1_dropShadow_402_7946" result="shape"/>
</filter>
</defs>
</svg>
