<svg xmlns="http://www.w3.org/2000/svg" width="24" height="24" viewBox="0 0 24 24" fill="none">
<path fill-rule="evenodd" clip-rule="evenodd" d="M9.28594 16.6676C7.33183 16.6676 5.48367 15.9024 4.10638 14.5134C2.71731 13.1243 1.95215 11.2879 1.95215 9.33379C1.95215 7.36791 2.71731 5.53152 4.10638 4.14246C5.48367 2.75339 7.33183 2 9.28594 2C11.24 2 13.0882 2.75339 14.4773 4.14246C15.8546 5.53152 16.6197 7.36791 16.6197 9.33379C16.6197 11.2879 15.8546 13.1243 14.4773 14.5134C13.0882 15.9024 11.24 16.6676 9.28594 16.6676ZM9.28594 15.0195C7.76738 15.0195 6.33123 14.4309 5.26 13.3597C4.18878 12.2767 3.58842 10.8523 3.58842 9.33379C3.58842 7.80346 4.18878 6.37908 5.26 5.29608C6.33123 4.22486 7.76738 3.63627 9.28594 3.63627C10.8045 3.63627 12.2406 4.22486 13.3119 5.29608C15.5367 7.52094 15.5367 11.1349 13.3119 13.3597C12.2406 14.4309 10.8045 15.0195 9.28594 15.0195Z" fill="white"/>
<path fill-rule="evenodd" clip-rule="evenodd" d="M16.0547 17.362C15.9605 17.362 15.8663 17.3267 15.7957 17.2561L14.2183 15.6787C14.489 15.4668 14.7362 15.2549 14.9717 15.0077C15.2424 14.7487 15.4778 14.4662 15.7015 14.1719L17.2907 15.7611C17.4319 15.9023 17.4319 16.126 17.2907 16.2672C17.2201 16.3261 17.1377 16.3614 17.0435 16.3614C16.9611 16.3614 16.8904 16.3379 16.8316 16.2908L16.3725 16.8558C16.4313 16.9853 16.4078 17.1384 16.3019 17.2561C16.2312 17.3267 16.1371 17.362 16.0547 17.362Z" fill="white"/>
<path fill-rule="evenodd" clip-rule="evenodd" d="M20.5164 22.0003C20.1161 22.0003 19.7276 21.8473 19.4451 21.553L16.1255 18.2451C15.843 17.9626 15.6899 17.5741 15.6899 17.1739C15.6899 16.7619 15.843 16.3734 16.1255 16.0909C16.4198 15.8084 16.7965 15.6436 17.2085 15.6436C17.6205 15.6436 17.9972 15.8084 18.2915 16.0909L21.5994 19.3987C22.1879 19.9991 22.1879 20.9644 21.5994 21.553C21.3051 21.8473 20.9284 22.0003 20.5164 22.0003Z" fill="white"/>
<path fill-rule="evenodd" clip-rule="evenodd" d="M6.90803 11.7117C5.5896 10.3932 5.5896 8.26254 6.90803 6.94411C7.03752 6.80285 7.03752 6.57918 6.90803 6.4497C6.76677 6.30843 6.54311 6.30843 6.40185 6.4497C4.81267 8.03888 4.81267 10.6169 6.40185 12.2061C6.47248 12.2767 6.56665 12.312 6.64906 12.312C6.74323 12.312 6.8374 12.2767 6.90803 12.2061C7.03752 12.0766 7.03752 11.8529 6.90803 11.7117Z" fill="white"/>
</svg>