<svg width="20" height="20" viewBox="0 0 20 20" fill="none" xmlns="http://www.w3.org/2000/svg">
<path fill-rule="evenodd" clip-rule="evenodd" d="M10 20C15.525 20 20 15.525 20 10C20 4.475 15.525 0 10 0C4.475 0 0 4.475 0 10C0 15.525 4.475 20 10 20ZM15.225 17.5333C17.6083 15.875 19.1667 13.125 19.1667 10C19.1667 4.93333 15.0667 0.833333 10 0.833333C4.93333 0.833333 0.833333 4.93333 0.833333 10C0.833333 13.125 2.39167 15.875 4.775 17.5333C5.3625 16.4333 7.25833 13.3333 10 13.3333C12.7417 13.3333 14.6333 16.4333 15.225 17.5333Z" fill="#818285"/>
<path d="M13 8.5C13 10.4338 11.6575 12 10 12C8.3425 12 7 10.4338 7 8.5C7 6.56625 8.3425 5 10 5C11.6575 5 13 6.56625 13 8.5Z" fill="#818285"/>
</svg>
