<svg width="24" height="24" viewBox="0 0 24 24" fill="none" xmlns="http://www.w3.org/2000/svg">
<path d="M5.02121 8.8402V11.2333C5.02123 11.3445 4.97753 11.4512 4.89956 11.5305C4.82159 11.6097 4.71558 11.6551 4.60441 11.657H4.59064C4.47946 11.6551 4.37346 11.6097 4.29548 11.5305C4.21751 11.4512 4.17381 11.3445 4.17383 11.2333V8.8402C4.17383 8.72783 4.21847 8.62006 4.29792 8.5406C4.37738 8.46114 4.48515 8.4165 4.59752 8.4165C4.70989 8.4165 4.81766 8.46114 4.89712 8.5406C4.97657 8.62006 5.02121 8.72783 5.02121 8.8402Z" fill="#818285"/>
<path d="M5.02121 16.6293V19.0223C5.02121 19.1347 4.97657 19.2425 4.89712 19.3219C4.81766 19.4014 4.70989 19.446 4.59752 19.446C4.48515 19.446 4.37738 19.4014 4.29792 19.3219C4.21847 19.2425 4.17383 19.1347 4.17383 19.0223V16.6293C4.17383 16.5169 4.21847 16.4091 4.29792 16.3297C4.37738 16.2502 4.48515 16.2056 4.59752 16.2056C4.70989 16.2056 4.81766 16.2502 4.89712 16.3297C4.97657 16.4091 5.02121 16.5169 5.02121 16.6293Z" fill="#818285"/>
<path d="M21.2481 2.79627V21.1726C21.2472 21.6571 21.0542 22.1216 20.7115 22.4641C20.3687 22.8066 19.9041 22.9992 19.4196 22.9998H6.00232C5.51778 22.9992 5.05322 22.8066 4.71047 22.4641C4.36772 22.1216 4.17474 21.6571 4.17383 21.1726V20.5241C4.17383 20.4117 4.21847 20.3039 4.29792 20.2245C4.37738 20.145 4.48515 20.1004 4.59752 20.1004C4.70989 20.1004 4.81766 20.145 4.89712 20.2245C4.97657 20.3039 5.02121 20.4117 5.02121 20.5241V21.1726C5.02184 21.4325 5.12545 21.6815 5.30935 21.8652C5.49325 22.0488 5.74243 22.1521 6.00232 22.1524H19.4196C19.6795 22.1521 19.9287 22.0488 20.1126 21.8652C20.2965 21.6815 20.4001 21.4325 20.4007 21.1726V2.79627C20.4004 2.53615 20.297 2.28676 20.113 2.10283C19.9291 1.9189 19.6797 1.81544 19.4196 1.81516H6.00232C5.7422 1.81544 5.49282 1.9189 5.30888 2.10283C5.12495 2.28676 5.02149 2.53615 5.02121 2.79627V3.44346C5.02121 3.55583 4.97657 3.6636 4.89712 3.74306C4.81766 3.82251 4.70989 3.86715 4.59752 3.86715C4.48515 3.86715 4.37738 3.82251 4.29792 3.74306C4.21847 3.6636 4.17383 3.55583 4.17383 3.44346V2.79627C4.17439 2.3115 4.36721 1.84674 4.71 1.50395C5.05279 1.16116 5.51755 0.968334 6.00232 0.967773H19.4196C19.9044 0.968334 20.3691 1.16116 20.7119 1.50395C21.0547 1.84674 21.2475 2.3115 21.2481 2.79627Z" fill="#818285"/>
<path d="M5.02121 12.7347V15.1278C5.02121 15.2402 4.97657 15.3479 4.89712 15.4274C4.81766 15.5068 4.70989 15.5515 4.59752 15.5515C4.48515 15.5515 4.37738 15.5068 4.29792 15.4274C4.21847 15.3479 4.17383 15.2402 4.17383 15.1278V12.7347C4.17381 12.6235 4.21751 12.5168 4.29548 12.4375C4.37346 12.3583 4.47946 12.3128 4.59064 12.311H4.60441C4.71558 12.3128 4.82159 12.3583 4.89956 12.4375C4.97753 12.5168 5.02123 12.6235 5.02121 12.7347Z" fill="#818285"/>
<path d="M5.02121 4.94518V7.33824C5.02121 7.45061 4.97657 7.55838 4.89712 7.63784C4.81766 7.7173 4.70989 7.76194 4.59752 7.76194C4.48515 7.76194 4.37738 7.7173 4.29792 7.63784C4.21847 7.55838 4.17383 7.45061 4.17383 7.33824V4.94518C4.17383 4.83281 4.21847 4.72504 4.29792 4.64558C4.37738 4.56612 4.48515 4.52148 4.59752 4.52148C4.70989 4.52148 4.81766 4.56612 4.89712 4.64558C4.97657 4.72504 5.02121 4.83281 5.02121 4.94518Z" fill="#818285"/>
<path d="M5.0203 3.04813C4.73912 3.01 4.45409 3.01 4.17291 3.04813C3.33903 3.16359 2.75195 3.618 2.75195 4.19422C2.75195 4.77044 3.33903 5.22458 4.17291 5.34004C4.45409 5.37817 4.73912 5.37817 5.0203 5.34004C5.85391 5.22458 6.44099 4.77017 6.44099 4.19422C6.44099 3.61826 5.85391 3.16359 5.0203 3.04813ZM4.5966 4.52126C3.9661 4.52126 3.62847 4.27737 3.60013 4.19422C3.62847 4.1108 3.9661 3.86692 4.5966 3.86692C5.22711 3.86692 5.56448 4.1108 5.59308 4.19422C5.56474 4.27763 5.22711 4.52126 4.5966 4.52126Z" fill="#818285"/>
<path d="M5.0203 6.94315C4.73912 6.90502 4.45409 6.90502 4.17291 6.94315C3.34036 7.05834 2.75195 7.51302 2.75195 8.08897C2.75195 8.66493 3.34036 9.1196 4.17291 9.23506C4.45409 9.27319 4.73912 9.27319 5.0203 9.23506C5.85391 9.1196 6.44099 8.66519 6.44099 8.08897C6.44099 7.51275 5.85391 7.05834 5.0203 6.94315ZM4.5966 8.41627C3.9661 8.41627 3.62847 8.17239 3.60013 8.08897C3.62847 8.00582 3.9661 7.76194 4.5966 7.76194C5.22711 7.76194 5.56448 8.00582 5.59308 8.08897C5.56474 8.17239 5.22711 8.41627 4.5966 8.41627Z" fill="#818285"/>
<path d="M5.0203 10.8377C4.73912 10.7995 4.45409 10.7995 4.17291 10.8377C3.34036 10.9531 2.75195 11.4075 2.75195 11.9838C2.75195 12.56 3.33903 13.0144 4.17291 13.1299C4.45409 13.168 4.73912 13.168 5.0203 13.1299C5.85391 13.0144 6.44099 12.56 6.44099 11.9838C6.44099 11.4075 5.85391 10.9531 5.0203 10.8377ZM4.60349 12.3111H4.58972C3.96371 12.3092 3.62847 12.0667 3.60013 11.9838C3.62847 11.9009 3.96371 11.6583 4.58972 11.6565H4.60349C5.22949 11.6583 5.56448 11.9009 5.59308 11.9838C5.56474 12.0667 5.22949 12.3092 4.60349 12.3111Z" fill="#818285"/>
<path d="M5.0203 14.7327C4.73912 14.6946 4.45409 14.6946 4.17291 14.7327C3.33903 14.8482 2.75195 15.3026 2.75195 15.8788C2.75195 16.455 3.34036 16.9094 4.17291 17.0246C4.45409 17.0627 4.73912 17.0627 5.0203 17.0246C5.85391 16.9092 6.44099 16.4547 6.44099 15.8788C6.44099 15.3028 5.85391 14.8482 5.0203 14.7327ZM4.5966 16.2058C3.9661 16.2058 3.62847 15.9619 3.60013 15.8788C3.62847 15.7954 3.9661 15.5515 4.5966 15.5515C5.22711 15.5515 5.56448 15.7954 5.59308 15.8788C5.56474 15.9619 5.22711 16.2058 4.5966 16.2058Z" fill="#818285"/>
<path d="M5.0203 18.6272C4.73912 18.5891 4.45409 18.5891 4.17291 18.6272C3.33903 18.7427 2.75195 19.1971 2.75195 19.7731C2.75195 20.349 3.33903 20.8037 4.17291 20.9191C4.45409 20.9573 4.73912 20.9573 5.0203 20.9191C5.85391 20.8037 6.44099 20.3493 6.44099 19.7731C6.44099 19.1968 5.85391 18.7427 5.0203 18.6272ZM4.5966 20.1004C3.9661 20.1004 3.62847 19.8565 3.60013 19.7731C3.62847 19.6899 3.9661 19.446 4.5966 19.446C5.22711 19.446 5.56474 19.6896 5.59308 19.7731C5.56474 19.8565 5.22711 20.1004 4.5966 20.1004Z" fill="#818285"/>
<path d="M18.1383 14.9288L16.6966 13.9214C16.5081 13.79 16.2877 13.7206 16.0592 13.7206C15.6958 13.7206 15.3547 13.8988 15.147 14.197L14.8123 14.6767C14.2514 14.3005 13.6254 13.7752 13.0288 13.1786C12.4322 12.5821 11.907 11.9562 11.531 11.3952L12.0104 11.0606C12.2548 10.8904 12.418 10.6355 12.4698 10.3429C12.5215 10.0506 12.4563 9.75529 12.286 9.5108L11.2789 8.06905C11.0683 7.76784 10.7285 7.58789 10.3698 7.58789C10.2455 7.58789 10.1236 7.60984 10.0075 7.65265C9.8757 7.70134 9.75291 7.7611 9.63251 7.83673L9.43344 7.97691C9.38367 8.01559 9.33738 8.05797 9.29304 8.1023C9.05018 8.34506 8.87784 8.65236 8.78059 9.01573C8.3656 10.5714 9.39366 12.9237 11.3387 14.8688C12.9722 16.5022 14.9345 17.5169 16.4598 17.5171C16.7211 17.5171 16.9674 17.4867 17.1919 17.4267C17.5553 17.3296 17.8626 17.1572 18.1055 16.9142C18.1496 16.8701 18.1918 16.8238 18.237 16.7654L18.3773 16.5652C18.4459 16.4557 18.5055 16.3329 18.5549 16.2001C18.7245 15.7416 18.5532 15.2187 18.1383 14.9288Z" fill="#818285"/>
</svg>
