<svg width="24" height="24" viewBox="0 0 24 24" fill="none" xmlns="http://www.w3.org/2000/svg">
<path d="M19.1145 13.4623H19.1078C18.5286 13.4615 17.955 13.5756 17.4202 13.798C16.8854 14.0204 16.4001 14.3467 15.9923 14.758C15.788 14.9622 15.6038 15.1856 15.4421 15.4251L12.2824 13.5827V10.5227C13.0194 10.4748 13.7326 10.2429 14.3567 9.84824C14.9809 9.45354 15.4962 8.90863 15.8554 8.26336C16.2146 7.6181 16.4063 6.89306 16.413 6.15457C16.4196 5.41609 16.241 4.68772 15.8934 4.0361C15.5458 3.38448 15.0405 2.83041 14.4235 2.42455C13.8065 2.0187 13.0975 1.77403 12.3616 1.71291C11.6256 1.65179 10.886 1.77618 10.2105 2.0747C9.53504 2.37322 8.94517 2.83635 8.49489 3.42171C8.44934 3.48079 8.42913 3.55554 8.43869 3.62952C8.44825 3.70351 8.48682 3.77066 8.54589 3.81621C8.60497 3.86176 8.67972 3.88198 8.75371 3.87242C8.82769 3.86285 8.89484 3.82429 8.94039 3.76521C9.2602 3.34968 9.66141 3.00374 10.1195 2.74857C10.5776 2.4934 11.0829 2.33435 11.6045 2.28115C12.1262 2.22795 12.6532 2.28172 13.1533 2.43917C13.6535 2.59662 14.1163 2.85444 14.5134 3.19686C14.9105 3.53928 15.2336 3.95911 15.4629 4.43067C15.6922 4.90223 15.8229 5.41561 15.847 5.93941C15.8711 6.4632 15.7881 6.98642 15.6031 7.47704C15.418 7.96766 15.1349 8.41539 14.7709 8.79284C14.6537 8.33886 14.4312 7.9189 14.1213 7.56706C13.8114 7.21522 13.4229 6.9414 12.9874 6.76784C13.3099 6.56436 13.5588 6.26306 13.6978 5.90797C13.8368 5.55289 13.8586 5.16265 13.76 4.79431C13.6613 4.42597 13.4474 4.09885 13.1495 3.86078C12.8517 3.62271 12.4854 3.48617 12.1044 3.47112C11.7234 3.45608 11.3475 3.56332 11.0318 3.77717C10.7161 3.99102 10.4771 4.30026 10.3497 4.65967C10.2223 5.01909 10.2132 5.40983 10.3238 5.77476C10.4344 6.1397 10.6588 6.4597 10.9643 6.68796C10.5157 6.82601 10.1056 7.0672 9.76701 7.39221C9.42839 7.71723 9.17059 8.11703 9.01427 8.55959C8.56894 8.01655 8.28035 7.36222 8.17963 6.66719C8.07891 5.97216 8.1699 5.26282 8.44277 4.61571C8.45838 4.58151 8.46698 4.54452 8.46805 4.50693C8.46912 4.46935 8.46265 4.43193 8.44901 4.39689C8.43536 4.36185 8.41484 4.3299 8.38863 4.30293C8.36243 4.27596 8.33109 4.25452 8.29646 4.23988C8.26183 4.22523 8.22461 4.21768 8.18701 4.21767C8.14941 4.21766 8.11219 4.22518 8.07755 4.23981C8.0429 4.25443 8.01155 4.27585 7.98533 4.3028C7.95911 4.32975 7.93856 4.36168 7.92489 4.39671C7.6504 5.04679 7.53565 5.75317 7.59025 6.4567C7.64485 7.16024 7.86721 7.84046 8.23872 8.4404C8.61022 9.04034 9.12005 9.54255 9.72552 9.90497C10.331 10.2674 11.0145 10.4795 11.7188 10.5235V13.5831L8.56164 15.4247C8.40202 15.1879 8.22034 14.9668 8.01902 14.7643C7.61047 14.351 7.12381 14.023 6.58734 13.7995C6.05088 13.576 5.47531 13.4614 4.89414 13.4623H4.89039C4.06525 13.463 3.25678 13.6947 2.55651 14.1311C1.85624 14.5675 1.29213 15.1913 0.928057 15.9318C0.563984 16.6722 0.414487 17.4999 0.49649 18.3209C0.578493 19.142 0.888721 19.9237 1.39205 20.5775C1.89538 21.2314 2.57171 21.7312 3.34447 22.0205C4.11723 22.3098 4.95555 22.377 5.76452 22.2145C6.57349 22.052 7.3208 21.6662 7.92185 21.1009C8.52289 20.5355 8.95367 19.8132 9.16539 19.0157C9.17747 18.9797 9.18213 18.9417 9.1791 18.9038C9.17608 18.866 9.16543 18.8292 9.14779 18.7956C9.13015 18.762 9.1059 18.7323 9.07648 18.7083C9.04707 18.6843 9.0131 18.6665 8.97663 18.656C8.94016 18.6455 8.90194 18.6425 8.86427 18.6471C8.82661 18.6518 8.79027 18.664 8.75745 18.6831C8.72464 18.7021 8.69602 18.7277 8.67332 18.7581C8.65063 18.7885 8.63432 18.8232 8.62539 18.8601C8.46041 19.4416 8.16881 19.9795 7.77152 20.4351C7.63546 19.9869 7.39545 19.5773 7.07105 19.2394C6.74666 18.9016 6.34704 18.6452 5.90477 18.4911C6.21866 18.2747 6.45513 17.9635 6.57964 17.6032C6.70415 17.2428 6.71017 16.852 6.59683 16.488C6.48349 16.124 6.25673 15.8057 5.94966 15.5797C5.64258 15.3537 5.2713 15.2318 4.89002 15.2318C4.50874 15.2318 4.13745 15.3537 3.83038 15.5797C3.52331 15.8057 3.29654 16.124 3.1832 16.488C3.06986 16.852 3.07589 17.2428 3.2004 17.6032C3.32491 17.9635 3.56138 18.2747 3.87527 18.4911C3.43365 18.6467 3.03477 18.9039 2.71078 19.242C2.3868 19.5801 2.14676 19.9895 2.01002 20.4373C1.51446 19.8828 1.1902 19.1966 1.07646 18.4616C0.962719 17.7267 1.06438 16.9745 1.36914 16.2961C1.6739 15.6177 2.1687 15.0422 2.79369 14.6391C3.41867 14.236 4.14707 14.0226 4.89077 14.0248H4.89377C5.91569 14.0271 6.895 14.4345 7.61701 15.1577C8.33902 15.8809 8.7448 16.8609 8.74539 17.8828C8.7452 17.9198 8.75228 17.9563 8.76623 17.9905C8.78019 18.0247 8.80075 18.0558 8.82673 18.082C8.85271 18.1082 8.88361 18.1291 8.91766 18.1434C8.9517 18.1576 8.98823 18.1651 9.02514 18.1652C9.09951 18.1653 9.17087 18.1359 9.2236 18.0835C9.27632 18.031 9.3061 17.9598 9.30639 17.8855C9.30938 17.2 9.15004 16.5235 8.84139 15.9115L12.0004 14.0698L15.1605 15.9126C14.8515 16.5239 14.691 17.1994 14.6921 17.8843C14.6927 18.7582 14.9522 19.6122 15.438 20.3386C15.9238 21.0649 16.614 21.631 17.4214 21.9651C18.2288 22.2993 19.1172 22.3866 19.9742 22.2161C20.8312 22.0455 21.6184 21.6247 22.2364 21.0068C22.8543 20.3889 23.2752 19.6018 23.4458 18.7448C23.6164 17.8878 23.5292 16.9994 23.1951 16.192C22.861 15.3845 22.295 14.6943 21.5687 14.2084C20.8424 13.7226 19.9883 13.4629 19.1145 13.4623ZM4.89039 15.7952C5.13291 15.7952 5.36997 15.8671 5.57162 16.0018C5.77327 16.1366 5.93044 16.3281 6.02326 16.5521C6.11609 16.7762 6.14039 17.0227 6.09311 17.2606C6.04582 17.4984 5.92907 17.7169 5.75762 17.8884C5.58616 18.0599 5.3677 18.1767 5.12985 18.2241C4.89201 18.2715 4.64546 18.2472 4.42139 18.1545C4.19731 18.0617 4.00577 17.9046 3.87099 17.703C3.7362 17.5014 3.66422 17.2643 3.66414 17.0218C3.66405 16.8608 3.69569 16.7012 3.75728 16.5524C3.81886 16.4036 3.90918 16.2683 4.02306 16.1544C4.13694 16.0405 4.27216 15.9501 4.42098 15.8885C4.56981 15.8269 4.72931 15.7952 4.89039 15.7952ZM4.89039 18.8777C5.4652 18.873 6.02298 19.0727 6.46421 19.4412C6.90545 19.8096 7.20144 20.3228 7.29939 20.8892C6.61715 21.4393 5.76716 21.7393 4.89077 21.7393C4.01438 21.7393 3.16439 21.4393 2.48214 20.8892C2.58162 20.3236 2.87794 19.8115 3.31868 19.4434C3.75941 19.0752 4.31615 18.8749 4.89039 18.8777ZM12.0353 4.03259H12.0863C12.2469 4.03939 12.4046 4.07776 12.5504 4.14552C12.6962 4.21328 12.8272 4.30909 12.9359 4.42749C13.0447 4.54589 13.1291 4.68456 13.1842 4.83556C13.2394 4.98657 13.2642 5.14697 13.2574 5.30759C13.2444 5.62318 13.11 5.92157 12.8824 6.14057C12.6548 6.35958 12.3515 6.48232 12.0356 6.48321C12.0191 6.48321 12.0023 6.48321 11.985 6.48321C11.6648 6.4695 11.3627 6.33098 11.1434 6.0973C10.9241 5.86363 10.8049 5.55337 10.8115 5.23295C10.8181 4.91253 10.9498 4.60742 11.1785 4.38293C11.4073 4.15844 11.7148 4.03317 12.0353 4.03259ZM11.9603 7.11321C12.5336 7.13386 13.0812 7.35687 13.5058 7.74272C13.9304 8.12856 14.2047 8.6523 14.28 9.22109C13.6213 9.70934 12.8233 9.97352 12.0034 9.97484H11.9985C11.071 9.9748 10.175 9.63867 9.47627 9.02871C9.60045 8.46915 9.91708 7.97092 10.3709 7.62087C10.8248 7.27083 11.3875 7.09117 11.9603 7.11321ZM16.7063 20.8873C16.8089 20.3235 17.1061 19.8135 17.5462 19.4463C17.9863 19.0791 18.5412 18.878 19.1143 18.878C19.6875 18.878 20.2424 19.0791 20.6825 19.4463C21.1225 19.8135 21.4198 20.3235 21.5224 20.8873C20.8406 21.4381 19.9907 21.7385 19.1143 21.7385C18.2379 21.7385 17.388 21.4381 16.7063 20.8873ZM19.1141 18.2466C18.8714 18.2473 18.634 18.176 18.4318 18.0417C18.2297 17.9074 18.0719 17.7161 17.9785 17.4921C17.8852 17.2681 17.8604 17.0214 17.9073 16.7833C17.9542 16.5451 18.0707 16.3263 18.2421 16.1544C18.4135 15.9826 18.632 15.8655 18.87 15.8179C19.108 15.7703 19.3548 15.7944 19.579 15.8872C19.8033 15.9799 19.995 16.1372 20.1299 16.339C20.2648 16.5407 20.3367 16.778 20.3366 17.0207C20.3364 17.3453 20.2077 17.6566 19.9786 17.8865C19.7495 18.1165 19.4387 18.2463 19.1141 18.2477V18.2466ZM21.9949 20.4328C21.8586 19.9849 21.6186 19.5754 21.2943 19.2377C20.97 18.9 20.5706 18.6435 20.1285 18.4892C20.4422 18.2726 20.6784 17.9613 20.8025 17.6009C20.9267 17.2404 20.9324 16.8498 20.8188 16.4859C20.7051 16.122 20.4781 15.804 20.1709 15.5783C19.8637 15.3526 19.4923 15.2311 19.1111 15.2314C18.7299 15.2318 18.3588 15.354 18.052 15.5802C17.7452 15.8065 17.5188 16.1249 17.4058 16.489C17.2928 16.8531 17.2993 17.2438 17.4241 17.604C17.549 17.9642 17.7857 18.275 18.0998 18.4911C17.6586 18.6475 17.2601 18.905 16.9362 19.2429C16.6123 19.5809 16.372 19.9899 16.2345 20.4373C15.742 19.8824 15.4202 19.1971 15.3077 18.4637C15.1951 17.7303 15.2967 16.98 15.6001 16.3029C15.9035 15.6258 16.3959 15.0507 17.0182 14.6466C17.6405 14.2425 18.3662 14.0266 19.1081 14.0248H19.1141C19.8569 14.0238 20.5841 14.2376 21.2081 14.6406C21.832 15.0436 22.3261 15.6185 22.6306 16.296C22.9351 16.9735 23.0371 17.7246 22.9243 18.4588C22.8115 19.1929 22.4888 19.878 21.9949 20.4328Z" fill="#F27619"/>
</svg>
