<svg width="24" height="22" viewBox="0 0 24 22" fill="none" xmlns="http://www.w3.org/2000/svg">
<path d="M19.1145 12.4623H19.1078C18.5286 12.4615 17.955 12.5756 17.4202 12.798C16.8854 13.0204 16.4001 13.3467 15.9923 13.758C15.788 13.9622 15.6038 14.1856 15.4421 14.4251L12.2824 12.5827V9.52271C13.0194 9.47483 13.7326 9.24293 14.3567 8.84824C14.9809 8.45354 15.4962 7.90863 15.8554 7.26336C16.2146 6.6181 16.4063 5.89306 16.413 5.15457C16.4196 4.41609 16.241 3.68772 15.8934 3.0361C15.5458 2.38448 15.0405 1.83041 14.4235 1.42455C13.8065 1.0187 13.0975 0.774025 12.3616 0.712907C11.6256 0.651789 10.886 0.77618 10.2105 1.0747C9.53504 1.37322 8.94517 1.83635 8.49489 2.42171C8.44934 2.48079 8.42913 2.55554 8.43869 2.62952C8.44825 2.70351 8.48682 2.77066 8.54589 2.81621C8.60497 2.86176 8.67972 2.88198 8.75371 2.87242C8.82769 2.86285 8.89484 2.82429 8.94039 2.76521C9.2602 2.34968 9.66141 2.00374 10.1195 1.74857C10.5776 1.4934 11.0829 1.33435 11.6045 1.28115C12.1262 1.22795 12.6532 1.28172 13.1533 1.43917C13.6535 1.59662 14.1163 1.85444 14.5134 2.19686C14.9105 2.53928 15.2336 2.95911 15.4629 3.43067C15.6922 3.90223 15.8229 4.41561 15.847 4.93941C15.8711 5.4632 15.7881 5.98642 15.6031 6.47704C15.418 6.96766 15.1349 7.41539 14.7709 7.79284C14.6537 7.33886 14.4312 6.9189 14.1213 6.56706C13.8114 6.21522 13.4229 5.9414 12.9874 5.76784C13.3099 5.56436 13.5588 5.26306 13.6978 4.90797C13.8368 4.55289 13.8586 4.16265 13.76 3.79431C13.6613 3.42597 13.4474 3.09885 13.1495 2.86078C12.8517 2.62271 12.4854 2.48617 12.1044 2.47112C11.7234 2.45608 11.3475 2.56332 11.0318 2.77717C10.7161 2.99102 10.4771 3.30026 10.3497 3.65967C10.2223 4.01909 10.2132 4.40983 10.3238 4.77476C10.4344 5.1397 10.6588 5.4597 10.9643 5.68796C10.5157 5.82601 10.1056 6.0672 9.76701 6.39221C9.42839 6.71723 9.17059 7.11703 9.01427 7.55959C8.56894 7.01655 8.28035 6.36222 8.17963 5.66719C8.07891 4.97216 8.1699 4.26282 8.44277 3.61571C8.45838 3.58151 8.46698 3.54452 8.46805 3.50693C8.46912 3.46935 8.46265 3.43193 8.44901 3.39689C8.43536 3.36185 8.41484 3.3299 8.38863 3.30293C8.36243 3.27596 8.33109 3.25452 8.29646 3.23988C8.26183 3.22523 8.22461 3.21768 8.18701 3.21767C8.14941 3.21766 8.11219 3.22518 8.07755 3.23981C8.0429 3.25443 8.01155 3.27585 7.98533 3.3028C7.95911 3.32975 7.93856 3.36168 7.92489 3.39671C7.6504 4.04679 7.53565 4.75317 7.59025 5.4567C7.64485 6.16024 7.86721 6.84046 8.23872 7.4404C8.61022 8.04034 9.12005 8.54255 9.72552 8.90497C10.331 9.26739 11.0145 9.47947 11.7188 9.52346V12.5831L8.56164 14.4247C8.40202 14.1879 8.22034 13.9668 8.01902 13.7643C7.61047 13.351 7.12381 13.023 6.58734 12.7995C6.05088 12.576 5.47531 12.4614 4.89414 12.4623H4.89039C4.06525 12.463 3.25678 12.6947 2.55651 13.1311C1.85624 13.5675 1.29213 14.1913 0.928057 14.9318C0.563984 15.6722 0.414487 16.4999 0.49649 17.3209C0.578493 18.142 0.888721 18.9237 1.39205 19.5775C1.89538 20.2314 2.57171 20.7312 3.34447 21.0205C4.11723 21.3098 4.95555 21.377 5.76452 21.2145C6.57349 21.052 7.3208 20.6662 7.92185 20.1009C8.52289 19.5355 8.95367 18.8132 9.16539 18.0157C9.17747 17.9797 9.18213 17.9417 9.1791 17.9038C9.17608 17.866 9.16543 17.8292 9.14779 17.7956C9.13015 17.762 9.1059 17.7323 9.07648 17.7083C9.04707 17.6843 9.0131 17.6665 8.97663 17.656C8.94016 17.6455 8.90194 17.6425 8.86427 17.6471C8.82661 17.6518 8.79027 17.664 8.75745 17.6831C8.72464 17.7021 8.69602 17.7277 8.67332 17.7581C8.65063 17.7885 8.63432 17.8232 8.62539 17.8601C8.46041 18.4416 8.16881 18.9795 7.77152 19.4351C7.63546 18.9869 7.39545 18.5773 7.07105 18.2394C6.74666 17.9016 6.34704 17.6452 5.90477 17.4911C6.21866 17.2747 6.45513 16.9635 6.57964 16.6032C6.70415 16.2428 6.71017 15.852 6.59683 15.488C6.48349 15.124 6.25673 14.8057 5.94966 14.5797C5.64258 14.3537 5.2713 14.2318 4.89002 14.2318C4.50874 14.2318 4.13745 14.3537 3.83038 14.5797C3.52331 14.8057 3.29654 15.124 3.1832 15.488C3.06986 15.852 3.07589 16.2428 3.2004 16.6032C3.32491 16.9635 3.56138 17.2747 3.87527 17.4911C3.43365 17.6467 3.03477 17.9039 2.71078 18.242C2.3868 18.5801 2.14676 18.9895 2.01002 19.4373C1.51446 18.8828 1.1902 18.1966 1.07646 17.4616C0.962719 16.7267 1.06438 15.9745 1.36914 15.2961C1.6739 14.6177 2.1687 14.0422 2.79369 13.6391C3.41867 13.236 4.14707 13.0226 4.89077 13.0248H4.89377C5.91569 13.0271 6.895 13.4345 7.61701 14.1577C8.33902 14.8809 8.7448 15.8609 8.74539 16.8828C8.7452 16.9198 8.75228 16.9563 8.76623 16.9905C8.78019 17.0247 8.80075 17.0558 8.82673 17.082C8.85271 17.1082 8.88361 17.1291 8.91766 17.1434C8.9517 17.1576 8.98823 17.1651 9.02514 17.1652C9.09951 17.1653 9.17087 17.1359 9.2236 17.0835C9.27632 17.031 9.3061 16.9598 9.30639 16.8855C9.30938 16.2 9.15004 15.5235 8.84139 14.9115L12.0004 13.0698L15.1605 14.9126C14.8515 15.5239 14.691 16.1994 14.6921 16.8843C14.6927 17.7582 14.9522 18.6122 15.438 19.3386C15.9238 20.0649 16.614 20.631 17.4214 20.9651C18.2288 21.2993 19.1172 21.3866 19.9742 21.2161C20.8312 21.0455 21.6184 20.6247 22.2364 20.0068C22.8543 19.3889 23.2752 18.6018 23.4458 17.7448C23.6164 16.8878 23.5292 15.9994 23.1951 15.192C22.861 14.3845 22.295 13.6943 21.5687 13.2084C20.8424 12.7226 19.9883 12.4629 19.1145 12.4623ZM4.89039 14.7952C5.13291 14.7952 5.36997 14.8671 5.57162 15.0018C5.77327 15.1366 5.93044 15.3281 6.02326 15.5521C6.11609 15.7762 6.14039 16.0227 6.09311 16.2606C6.04582 16.4984 5.92907 16.7169 5.75762 16.8884C5.58616 17.0599 5.3677 17.1767 5.12985 17.2241C4.89201 17.2715 4.64546 17.2472 4.42139 17.1545C4.19731 17.0617 4.00577 16.9046 3.87099 16.703C3.7362 16.5014 3.66422 16.2643 3.66414 16.0218C3.66405 15.8608 3.69569 15.7012 3.75728 15.5524C3.81886 15.4036 3.90918 15.2683 4.02306 15.1544C4.13694 15.0405 4.27216 14.9501 4.42098 14.8885C4.56981 14.8269 4.72931 14.7952 4.89039 14.7952ZM4.89039 17.8777C5.4652 17.873 6.02298 18.0727 6.46421 18.4412C6.90545 18.8096 7.20144 19.3228 7.29939 19.8892C6.61715 20.4393 5.76716 20.7393 4.89077 20.7393C4.01438 20.7393 3.16439 20.4393 2.48214 19.8892C2.58162 19.3236 2.87794 18.8115 3.31868 18.4434C3.75941 18.0752 4.31615 17.8749 4.89039 17.8777ZM12.0353 3.03259H12.0863C12.2469 3.03939 12.4046 3.07776 12.5504 3.14552C12.6962 3.21328 12.8272 3.30909 12.9359 3.42749C13.0447 3.54589 13.1291 3.68456 13.1842 3.83556C13.2394 3.98657 13.2642 4.14697 13.2574 4.30759C13.2444 4.62318 13.11 4.92157 12.8824 5.14057C12.6548 5.35958 12.3515 5.48232 12.0356 5.48321C12.0191 5.48321 12.0023 5.48321 11.985 5.48321C11.6648 5.4695 11.3627 5.33098 11.1434 5.0973C10.9241 4.86363 10.8049 4.55337 10.8115 4.23295C10.8181 3.91253 10.9498 3.60742 11.1785 3.38293C11.4073 3.15844 11.7148 3.03317 12.0353 3.03259ZM11.9603 6.11321C12.5336 6.13386 13.0812 6.35687 13.5058 6.74272C13.9304 7.12856 14.2047 7.6523 14.28 8.22109C13.6213 8.70934 12.8233 8.97352 12.0034 8.97484H11.9985C11.071 8.9748 10.175 8.63867 9.47627 8.02871C9.60045 7.46915 9.91708 6.97092 10.3709 6.62087C10.8248 6.27083 11.3875 6.09117 11.9603 6.11321ZM16.7063 19.8873C16.8089 19.3235 17.1061 18.8135 17.5462 18.4463C17.9863 18.0791 18.5412 17.878 19.1143 17.878C19.6875 17.878 20.2424 18.0791 20.6825 18.4463C21.1225 18.8135 21.4198 19.3235 21.5224 19.8873C20.8406 20.4381 19.9907 20.7385 19.1143 20.7385C18.2379 20.7385 17.388 20.4381 16.7063 19.8873ZM19.1141 17.2466C18.8714 17.2473 18.634 17.176 18.4318 17.0417C18.2297 16.9074 18.0719 16.7161 17.9785 16.4921C17.8852 16.2681 17.8604 16.0214 17.9073 15.7833C17.9542 15.5451 18.0707 15.3263 18.2421 15.1544C18.4135 14.9826 18.632 14.8655 18.87 14.8179C19.108 14.7703 19.3548 14.7944 19.579 14.8872C19.8033 14.9799 19.995 15.1372 20.1299 15.339C20.2648 15.5407 20.3367 15.778 20.3366 16.0207C20.3364 16.3453 20.2077 16.6566 19.9786 16.8865C19.7495 17.1165 19.4387 17.2463 19.1141 17.2477V17.2466ZM21.9949 19.4328C21.8586 18.9849 21.6186 18.5754 21.2943 18.2377C20.97 17.9 20.5706 17.6435 20.1285 17.4892C20.4422 17.2726 20.6784 16.9613 20.8025 16.6009C20.9267 16.2404 20.9324 15.8498 20.8188 15.4859C20.7051 15.122 20.4781 14.804 20.1709 14.5783C19.8637 14.3526 19.4923 14.2311 19.1111 14.2314C18.7299 14.2318 18.3588 14.354 18.052 14.5802C17.7452 14.8065 17.5188 15.1249 17.4058 15.489C17.2928 15.8531 17.2993 16.2438 17.4241 16.604C17.549 16.9642 17.7857 17.275 18.0998 17.4911C17.6586 17.6475 17.2601 17.905 16.9362 18.2429C16.6123 18.5809 16.372 18.9899 16.2345 19.4373C15.742 18.8824 15.4202 18.1971 15.3077 17.4637C15.1951 16.7303 15.2967 15.98 15.6001 15.3029C15.9035 14.6258 16.3959 14.0507 17.0182 13.6466C17.6405 13.2425 18.3662 13.0266 19.1081 13.0248H19.1141C19.8569 13.0238 20.5841 13.2376 21.2081 13.6406C21.832 14.0436 22.3261 14.6185 22.6306 15.296C22.9351 15.9735 23.0371 16.7246 22.9243 17.4588C22.8115 18.1929 22.4888 18.878 21.9949 19.4328Z" fill="#818285"/>
</svg>
