<svg width="19" height="20" viewBox="0 0 19 20" fill="none" xmlns="http://www.w3.org/2000/svg">
<path d="M10.4762 0V5.71429C10.4762 6.21946 10.6769 6.70394 11.0341 7.06116C11.3913 7.41837 11.8758 7.61905 12.381 7.61905H18.0952V17.1429C18.0952 17.648 17.8946 18.1325 17.5373 18.4897C17.1801 18.8469 16.6957 19.0476 16.1905 19.0476H9.70476C10.6905 18.0215 11.2927 16.6872 11.4099 15.2691C11.5272 13.8511 11.1523 12.436 10.3485 11.2619C9.54472 10.0878 8.36099 9.22647 6.99657 8.82283C5.63215 8.4192 4.17033 8.49791 2.85714 9.04571V1.90476C2.85714 1.39959 3.05782 0.915104 3.41503 0.557892C3.77225 0.20068 4.25673 0 4.7619 0H10.4762ZM11.9048 0.47619V5.71429C11.9048 5.84058 11.9549 5.9617 12.0442 6.051C12.1335 6.14031 12.2547 6.19048 12.381 6.19048H17.619L11.9048 0.47619ZM0 14.7619C-1.02502e-08 15.4498 0.135487 16.1309 0.398726 16.7664C0.661965 17.402 1.0478 17.9794 1.5342 18.4658C2.0206 18.9522 2.59805 19.338 3.23356 19.6013C3.86908 19.8645 4.55022 20 5.2381 20C5.92597 20 6.60711 19.8645 7.24263 19.6013C7.87814 19.338 8.45559 18.9522 8.94199 18.4658C9.42839 17.9794 9.81423 17.402 10.0775 16.7664C10.3407 16.1309 10.4762 15.4498 10.4762 14.7619C10.4762 13.3727 9.92432 12.0403 8.94199 11.058C7.95965 10.0757 6.62732 9.52381 5.2381 9.52381C3.84887 9.52381 2.51654 10.0757 1.5342 11.058C0.551869 12.0403 2.07011e-08 13.3727 0 14.7619ZM4.52381 17.8571C4.52381 17.6677 4.59906 17.486 4.73302 17.3521C4.86697 17.2181 5.04866 17.1429 5.2381 17.1429C5.42754 17.1429 5.60922 17.2181 5.74317 17.3521C5.87713 17.486 5.95238 17.6677 5.95238 17.8571C5.95238 18.0466 5.87713 18.2283 5.74317 18.3622C5.60922 18.4962 5.42754 18.5714 5.2381 18.5714C5.04866 18.5714 4.86697 18.4962 4.73302 18.3622C4.59906 18.2283 4.52381 18.0466 4.52381 17.8571ZM3.33333 13.3333C3.33333 12.8282 3.53401 12.3437 3.89123 11.9865C4.24844 11.6293 4.73292 11.4286 5.2381 11.4286C5.74327 11.4286 6.22775 11.6293 6.58497 11.9865C6.94218 12.3437 7.14286 12.8282 7.14286 13.3333C7.14286 14.0286 6.94095 14.419 6.42476 14.96L6.17333 15.2171L6.06286 15.3352C5.79333 15.639 5.71429 15.8381 5.71429 16.1905C5.71429 16.3168 5.66412 16.4379 5.57481 16.5272C5.48551 16.6165 5.36439 16.6667 5.2381 16.6667C5.1118 16.6667 4.99068 16.6165 4.90138 16.5272C4.81207 16.4379 4.7619 16.3168 4.7619 16.1905C4.7619 15.4952 4.96381 15.1048 5.48 14.5638L5.73143 14.3067L5.8419 14.1886C6.11143 13.8848 6.19048 13.6867 6.19048 13.3333C6.19048 13.0807 6.09014 12.8385 5.91153 12.6599C5.73292 12.4813 5.49068 12.381 5.2381 12.381C4.98551 12.381 4.74327 12.4813 4.56466 12.6599C4.38605 12.8385 4.28571 13.0807 4.28571 13.3333C4.28571 13.4596 4.23554 13.5807 4.14624 13.6701C4.05694 13.7594 3.93582 13.8095 3.80952 13.8095C3.68323 13.8095 3.56211 13.7594 3.47281 13.6701C3.3835 13.5807 3.33333 13.4596 3.33333 13.3333Z" fill="#2D6097"/>
</svg>
