<svg width="12" height="17" viewBox="0 0 12 17" fill="none" xmlns="http://www.w3.org/2000/svg">
<path d="M2.32515 0.500079C2.55996 0.499498 2.79196 0.537177 3.00411 0.610346C3.21626 0.683515 3.40316 0.790315 3.55109 0.922897L11.1425 7.77939C11.3736 7.98387 11.5 8.24035 11.5 8.50504C11.5 8.76973 11.3736 9.02621 11.1425 9.23068L3.2839 16.0872C3.01712 16.3205 2.63376 16.4673 2.21816 16.4952C1.80256 16.523 1.38875 16.4297 1.06778 16.2357C0.746814 16.0418 0.544969 15.763 0.506651 15.4609C0.468332 15.1587 0.596681 14.8578 0.863461 14.6245L7.88901 8.49932L1.09922 2.37419C0.907024 2.20645 0.784939 2.00219 0.747407 1.78559C0.709875 1.56898 0.758468 1.34909 0.887436 1.15193C1.0164 0.954776 1.22035 0.788607 1.47514 0.673086C1.72993 0.557566 2.0249 0.497528 2.32515 0.500079Z" fill="#4097A3"/>
</svg>
